<?xml version="1.0" standalone="no"?>
<!DOCTYPE svg PUBLIC "-//W3C//DTD SVG 20010904//EN"
 "http://www.w3.org/TR/2001/REC-SVG-20010904/DTD/svg10.dtd">
<svg version="1.0" xmlns="http://www.w3.org/2000/svg"
 width="300.000000pt" height="300.000000pt" viewBox="0 0 300.000000 300.000000"
 preserveAspectRatio="xMidYMid meet">
<metadata>
Created by potrace 1.10, written by Peter Selinger 2001-2011
</metadata>
<g transform="translate(0.000000,300.000000) scale(0.100000,-0.100000)"
fill="#000000" stroke="none">
<path d="M1463 2515 c-12 -8 -37 -44 -57 -79 -20 -36 -50 -78 -66 -95 -43 -42
-40 -62 5 -40 18 8 18 9 -4 5 l-24 -5 25 27 c33 36 98 134 98 148 0 15 44 44
68 44 27 0 52 -32 52 -66 0 -41 -40 -77 -126 -114 -38 -16 -62 -30 -54 -30 8
0 38 11 67 24 111 52 147 99 119 154 -23 44 -63 55 -103 27z"/>
<path d="M1830 2489 c43 -12 80 -51 80 -85 0 -15 -13 -38 -30 -56 l-31 -31
-152 7 c-84 4 -160 10 -169 12 -10 3 -18 1 -18 -4 0 -8 181 -22 297 -22 47 0
59 4 84 29 31 31 38 75 18 113 -11 21 -67 49 -96 47 -10 0 -2 -5 17 -10z"/>
<path d="M1653 2418 c-62 -39 -111 -73 -109 -76 3 -2 38 18 78 44 40 26 96 60
123 76 28 15 43 28 35 28 -8 0 -66 -32 -127 -72z"/>
<path d="M1202 2455 c-49 -35 -6 -107 51 -86 14 5 28 19 32 30 6 21 -9 61 -25
61 -4 0 -14 2 -22 5 -7 3 -23 -2 -36 -10z m49 -5 c41 -22 8 -91 -35 -74 -26
10 -32 55 -11 71 22 16 21 16 46 3z"/>
<path d="M1984 2425 c-8 -20 3 -48 18 -43 6 2 16 12 22 21 8 13 7 20 -4 27
-21 14 -30 12 -36 -5z"/>
<path d="M2061 2333 c-11 -10 -23 -34 -26 -53 -5 -33 -5 -33 4 -6 21 62 71 84
119 50 28 -20 31 -83 4 -107 -25 -23 -75 -21 -97 3 -10 11 -20 18 -23 15 -3
-3 3 -14 13 -25 25 -27 88 -27 115 0 20 20 28 83 12 106 -23 35 -88 44 -121
17z"/>
<path d="M1055 2320 c-13 -41 38 -67 66 -34 14 17 3 45 -22 52 -8 3 -7 -1 4
-10 22 -16 13 -48 -13 -48 -22 0 -34 28 -19 46 8 9 8 14 1 14 -6 0 -14 -9 -17
-20z"/>
<path d="M1944 2299 c-3 -6 -2 -15 4 -21 13 -13 32 -2 32 18 0 16 -26 19 -36
3z"/>
<path d="M1405 2284 c-73 -18 -146 -44 -160 -57 -7 -7 -3 -7 10 -3 98 36 179
57 235 62 85 8 120 0 120 -26 0 -16 -7 -20 -35 -20 -19 0 -35 -5 -35 -11 0
-10 52 -4 73 8 11 7 8 38 -5 51 -16 16 -128 14 -203 -4z"/>
<path d="M1658 2285 c-2 -3 -3 -18 0 -35 3 -23 9 -30 26 -29 18 1 18 2 3 6
-15 4 -18 12 -15 34 4 27 -1 36 -14 24z"/>
<path d="M1755 2261 c39 -10 83 -23 98 -30 34 -13 44 -14 32 -2 -15 14 -143
51 -174 50 -14 0 6 -9 44 -18z"/>
<path d="M857 2199 c-18 -25 -13 -45 14 -60 22 -11 59 4 59 24 0 8 -3 8 -9 -1
-13 -22 -56 -11 -59 16 -4 28 23 40 50 23 16 -10 19 -10 16 1 -8 23 -54 21
-71 -3z"/>
<path d="M1166 2192 c-114 -63 -248 -201 -314 -323 -32 -60 -72 -189 -71 -230
0 -13 10 17 23 66 12 50 33 110 46 135 66 129 182 256 293 322 87 52 93 57 82
57 -5 0 -32 -12 -59 -27z"/>
<path d="M1725 2211 c31 -13 93 -24 75 -12 -8 5 -33 12 -55 15 -27 4 -34 4
-20 -3z"/>
<path d="M1900 2215 c0 -3 26 -18 58 -34 129 -66 278 -225 346 -371 19 -41 35
-69 36 -62 0 30 -76 165 -131 231 -71 84 -177 175 -248 214 -52 27 -61 31 -61
22z"/>
<path d="M1715 2156 c94 -63 162 -159 192 -271 13 -49 13 -49 9 -9 -5 51 -47
142 -93 196 -38 46 -128 118 -146 118 -7 0 11 -15 38 -34z"/>
<path d="M1875 2162 c184 -90 323 -243 404 -443 16 -41 30 -68 30 -61 1 22
-48 134 -90 207 -55 93 -182 217 -281 273 -42 24 -87 46 -100 49 -13 3 4 -8
37 -25z"/>
<path d="M1380 2170 c-26 -5 -12 -8 54 -9 49 0 87 1 85 3 -10 8 -107 13 -139
6z"/>
<path d="M1305 2149 c-4 -5 23 -9 62 -9 84 0 155 -30 215 -92 38 -40 45 -36
10 5 -25 28 2 19 30 -10 41 -45 61 -93 38 -93 -6 0 -15 12 -21 26 -5 15 -12
24 -15 21 -10 -10 21 -62 36 -62 9 0 16 11 18 29 3 23 -6 38 -52 82 -62 61
-61 67 5 25 85 -54 118 -152 63 -188 -24 -15 -29 -15 -52 -2 -27 15 -41 36
-63 97 -6 18 -13 31 -16 29 -2 -3 6 -30 17 -61 32 -84 85 -110 127 -63 31 34
34 54 17 97 -18 44 -65 90 -124 120 -47 24 -54 25 -46 5 7 -19 -8 -19 -24 -1
-25 31 -212 68 -225 45z"/>
<path d="M1565 2142 c126 -54 199 -131 224 -239 7 -29 9 -32 10 -13 1 36 -41
121 -84 169 -36 40 -143 102 -174 100 -9 0 2 -8 24 -17z"/>
<path d="M2197 2149 c-22 -13 -22 -58 -1 -66 39 -15 73 46 37 65 -12 7 -25 7
-36 1z m38 -34 c0 -30 -39 -27 -43 3 -3 20 0 23 20 20 15 -2 23 -10 23 -23z"/>
<path d="M1816 2141 c-3 -4 6 -19 21 -32 14 -13 43 -48 65 -76 21 -29 47 -53
56 -53 23 0 42 19 42 41 0 26 -112 120 -126 106 -2 -2 19 -18 46 -36 58 -38
77 -65 59 -87 -19 -23 -37 -16 -63 24 -13 20 -38 52 -55 70 -36 38 -38 44 -13
36 14 -5 15 -4 2 5 -18 13 -27 14 -34 2z"/>
<path d="M1449 2076 c56 -35 77 -59 66 -76 -11 -18 -32 -11 -56 19 -67 81
-182 99 -292 47 -107 -51 -215 -173 -275 -310 -38 -85 -23 -75 18 13 91 191
237 312 378 312 71 1 115 -18 162 -66 37 -39 51 -42 70 -20 10 12 9 20 -4 40
-20 31 -10 32 23 3 l26 -23 -24 27 c-27 31 -97 68 -127 68 -12 0 0 -12 35 -34z"/>
<path d="M1149 2002 c-61 -39 -145 -126 -180 -187 -33 -57 -35 -65 -14 -65 8
0 15 4 15 9 0 22 99 116 145 138 35 17 41 23 20 18 -36 -8 -88 -45 -132 -94
-43 -48 -42 -31 3 30 95 129 233 207 264 149 17 -32 -3 -56 -57 -68 -32 -6
-39 -10 -21 -11 32 -1 80 16 90 32 12 19 9 44 -8 61 -24 24 -75 19 -125 -12z"/>
<path d="M2280 2010 c0 -15 5 -20 18 -18 9 2 17 10 17 18 0 8 -8 16 -17 18
-13 2 -18 -3 -18 -18z"/>
<path d="M1403 1940 c-60 -12 -100 -36 -154 -91 -46 -47 -85 -125 -77 -151 3
-7 10 8 16 34 15 57 91 144 154 176 33 16 63 22 112 22 59 0 66 -2 66 -20 0
-16 -7 -20 -37 -20 -52 0 -107 -17 -135 -41 l-23 -20 25 8 c14 4 59 8 100 8
108 -1 179 -43 225 -135 21 -41 24 -149 5 -195 -60 -152 -267 -204 -400 -99
-53 42 -69 64 -92 129 -17 47 -18 48 -12 11 7 -51 42 -105 94 -146 54 -43 102
-59 175 -59 177 -1 306 171 250 333 -37 107 -114 165 -235 175 -73 7 -74 7
-30 14 25 4 56 8 70 9 37 4 40 45 5 58 -30 11 -43 11 -102 0z"/>
<path d="M2025 1925 c-22 -21 -25 -32 -23 -87 l1 -63 6 68 c5 52 11 72 25 83
49 36 88 6 97 -73 l6 -58 2 53 c1 44 -3 57 -24 77 -13 14 -33 25 -45 25 -11 0
-32 -11 -45 -25z"/>
<path d="M1801 1817 c-1 -41 13 -77 31 -77 6 0 6 6 -3 16 -7 9 -16 34 -20 57
l-6 42 -2 -38z"/>
<path d="M1036 1793 c-54 -54 -148 -215 -133 -229 2 -3 14 20 26 50 22 53 92
158 124 184 26 22 62 11 65 -19 3 -22 -4 -31 -45 -54 -63 -36 -101 -72 -124
-117 -30 -59 -22 -59 12 0 20 36 45 63 77 82 89 55 93 59 90 93 -3 28 -7 32
-34 35 -22 2 -38 -4 -58 -25z"/>
<path d="M724 1795 c-9 -23 3 -45 25 -45 23 0 35 28 20 46 -15 18 -38 18 -45
-1z m41 -15 c0 -8 -8 -16 -17 -18 -13 -2 -18 3 -18 18 0 15 5 20 18 18 9 -2
17 -10 17 -18z"/>
<path d="M1339 1777 c-139 -94 -81 -321 86 -335 30 -2 65 -2 79 2 62 15 126
104 126 176 0 46 -30 108 -69 144 -38 37 -49 29 -22 -15 24 -39 28 -130 7
-167 -26 -48 -97 -77 -124 -50 -8 8 -12 8 -12 1 0 -6 7 -14 16 -17 33 -13 62
-5 99 27 36 32 39 38 43 99 3 39 -1 74 -8 87 -21 40 -2 34 26 -8 38 -58 42
-123 12 -180 -30 -58 -65 -83 -126 -89 -95 -9 -168 39 -192 124 -33 118 49
230 155 210 99 -19 114 -165 20 -196 -19 -6 -37 -15 -40 -20 -12 -19 71 22 93
46 42 47 21 138 -38 169 -42 22 -92 19 -131 -8z"/>
<path d="M1910 1785 c0 -8 -15 -25 -32 -36 -28 -17 -29 -20 -8 -14 14 4 31 14
38 23 12 16 17 42 7 42 -3 0 -5 -7 -5 -15z"/>
<path d="M2097 1709 c-16 -44 -27 -82 -24 -85 6 -6 60 143 55 156 -1 5 -16
-27 -31 -71z"/>
<path d="M2017 1720 c6 -63 22 -113 21 -70 0 14 -6 48 -13 75 l-14 50 6 -55z"/>
<path d="M2340 1724 c0 -6 7 -31 15 -55 25 -69 37 -226 26 -319 -36 -286 -210
-541 -456 -671 -46 -24 -82 -45 -80 -47 10 -10 174 88 239 144 134 114 228
262 282 441 23 76 27 107 27 223 1 100 -4 152 -17 200 -18 64 -35 105 -36 84z"/>
<path d="M701 1636 c-43 -114 -52 -270 -25 -404 34 -172 169 -387 308 -492 53
-40 186 -110 208 -110 7 0 -29 21 -80 46 -190 93 -363 308 -417 519 -34 134
-28 325 13 431 l17 42 0 -156 c0 -139 3 -165 24 -225 29 -86 37 -83 9 3 -16
51 -21 93 -22 195 0 72 1 145 4 164 8 56 -16 48 -39 -13z"/>
<path d="M2227 1670 c41 -21 48 -33 77 -120 2 -9 5 -5 5 8 1 29 -24 84 -47
105 -9 9 -30 18 -47 22 -25 6 -24 4 12 -15z"/>
<path d="M851 1630 c-6 -28 -11 -68 -10 -88 1 -22 6 -4 14 48 15 96 13 118 -4
40z"/>
<path d="M2137 1660 c-47 -37 -70 -161 -47 -255 4 -18 6 8 6 65 -1 109 17 165
62 193 15 9 22 17 16 17 -6 0 -23 -9 -37 -20z"/>
<path d="M1916 1631 c-18 -20 -13 -46 11 -55 37 -15 59 45 24 63 -14 8 -22 6
-35 -8z m44 -20 c0 -26 -17 -36 -35 -21 -18 15 -8 40 16 40 12 0 19 -7 19 -19z"/>
<path d="M2315 1605 c13 -106 15 -185 7 -240 -8 -48 -10 -53 -12 -25 -1 26 -5
16 -16 -40 -7 -41 -11 -83 -8 -94 4 -10 2 -16 -3 -13 -10 6 -38 -71 -30 -80 8
-8 28 36 22 47 -3 6 -2 10 3 10 16 0 31 57 27 97 -4 29 -3 32 3 13 7 -20 11
-10 20 53 16 101 15 178 -3 252 -9 38 -13 45 -10 20z"/>
<path d="M1060 1597 c0 -27 19 -40 39 -27 20 12 8 45 -17 48 -18 3 -22 -1 -22
-21z"/>
<path d="M773 1535 c0 -44 2 -61 4 -37 2 23 2 59 0 80 -2 20 -4 1 -4 -43z"/>
<path d="M1957 1554 c-7 -7 62 -84 75 -84 16 0 7 29 -18 59 -25 30 -44 38 -57
25z m57 -37 c30 -41 14 -41 -18 0 -16 20 -23 34 -16 31 8 -2 23 -16 34 -31z"/>
<path d="M883 1514 c-18 -85 -3 -217 22 -192 3 2 7 43 9 89 2 46 7 98 10 114
6 29 6 29 -5 5 -6 -14 -14 -65 -18 -115 -6 -87 -7 -88 -14 -40 -4 28 -3 77 3
109 11 67 6 89 -7 30z"/>
<path d="M2155 1515 c-39 -38 -32 -86 16 -110 38 -20 46 -19 74 10 34 33 33
77 -1 104 -35 27 -59 26 -89 -4z m83 -5 c41 -39 19 -100 -35 -100 -57 0 -82
61 -43 100 26 26 50 25 78 0z"/>
<path d="M2171 1481 c-13 -24 8 -55 34 -50 28 6 42 34 26 53 -18 22 -48 20
-60 -3z m51 -3 c8 -21 -2 -38 -23 -38 -19 0 -27 29 -12 43 11 11 31 8 35 -5z"/>
<path d="M2313 1455 c0 -33 2 -45 4 -27 2 18 2 45 0 60 -2 15 -4 0 -4 -33z"/>
<path d="M1792 1484 c-12 -8 -22 -19 -22 -25 0 -5 9 0 20 11 24 24 29 24 58 4
26 -18 28 -46 6 -68 -21 -21 -40 -20 -64 4 -11 11 -20 16 -20 11 0 -18 31 -41
54 -41 52 0 76 75 34 104 -12 9 -27 16 -33 16 -6 0 -21 -7 -33 -16z"/>
<path d="M1048 1470 c43 -18 38 -38 -25 -98 -83 -80 -102 -155 -67 -271 20
-69 27 -62 8 9 -30 114 -14 174 67 252 32 32 59 64 59 72 0 20 -28 46 -48 45
-12 0 -10 -3 6 -9z"/>
<path d="M992 1448 c-26 -28 -62 -106 -61 -133 0 -11 8 0 16 25 9 25 28 64 44
88 32 47 32 52 1 20z"/>
<path d="M781 1423 c-2 -66 71 -253 99 -253 14 0 13 13 -6 75 -8 30 -19 82
-24 117 l-9 63 4 -70 c2 -38 11 -92 21 -118 9 -26 14 -50 12 -53 -10 -10 -61
113 -78 189 -12 52 -19 70 -19 50z"/>
<path d="M1952 1428 c-30 -30 3 -77 40 -57 22 12 24 55 2 63 -22 8 -28 8 -42
-6z m46 -26 c3 -18 -1 -22 -22 -22 -19 0 -26 5 -26 18 0 39 43 43 48 4z"/>
<path d="M1690 1380 c0 -15 5 -20 18 -18 9 2 17 10 17 18 0 8 -8 16 -17 18
-13 2 -18 -3 -18 -18z"/>
<path d="M2105 1227 c0 -80 3 -138 7 -129 8 21 8 206 -1 246 -3 17 -6 -36 -6
-117z"/>
<path d="M2182 1358 c-15 -15 -15 -35 -1 -44 7 -4 9 0 5 14 -8 23 4 35 22 24
12 -8 -7 -181 -29 -257 -27 -96 -108 -217 -196 -295 -45 -39 -139 -100 -155
-100 -4 0 18 26 50 58 32 31 70 75 84 97 34 53 78 137 78 150 0 5 -18 -23 -39
-62 -37 -71 -94 -149 -136 -187 -11 -10 -38 -34 -60 -53 -34 -30 -36 -34 -15
-28 171 50 354 249 404 441 23 88 37 226 24 241 -13 16 -21 16 -36 1z"/>
<path d="M1158 1348 c12 -6 25 -22 29 -36 5 -21 -1 -31 -37 -60 -47 -40 -87
-112 -61 -112 5 0 13 9 16 20 3 11 13 20 22 20 14 0 14 -3 -1 -25 -9 -13 -16
-30 -16 -37 1 -7 8 1 17 17 9 17 20 33 26 36 16 11 -2 28 -23 22 -32 -8 -23
14 18 44 46 34 52 42 52 70 0 21 -34 54 -55 52 -5 0 0 -5 13 -11z"/>
<path d="M1097 1339 c-40 -23 -98 -151 -96 -213 1 -67 17 -70 17 -3 0 79 33
159 83 202 31 25 29 33 -4 14z"/>
<path d="M1811 1333 c1 -10 5 -29 10 -43 7 -20 7 -17 3 13 -3 21 -1 37 5 37
11 0 29 -81 34 -155 3 -48 3 -47 4 10 2 78 -17 149 -39 153 -12 2 -18 -3 -17
-15z"/>
<path d="M1955 1317 c-21 -17 -28 -34 -31 -72 -4 -55 1 -51 11 8 12 74 78 102
125 52 21 -23 23 -30 18 -107 -3 -47 -2 -74 2 -63 5 11 9 51 9 88 1 59 -2 71
-24 92 -31 32 -75 32 -110 2z"/>
<path d="M1555 1296 c-16 -24 -16 -28 -1 -50 17 -27 28 -31 99 -41 39 -5 57
-15 94 -51 26 -24 48 -44 50 -44 2 0 3 10 3 23 0 29 -52 102 -103 147 -26 23
-51 34 -81 37 -39 5 -46 2 -61 -21z m92 3 c34 -12 75 -50 114 -103 40 -53 37
-76 -4 -33 -31 33 -56 44 -152 64 -31 6 -41 13 -43 31 -7 51 22 65 85 41z"/>
<path d="M918 1253 c-3 -21 -2 -58 2 -83 7 -39 8 -34 9 38 1 88 -3 105 -11 45z"/>
<path d="M2182 1256 c-4 -93 -70 -265 -127 -331 -30 -35 -30 -33 14 58 17 38
30 74 28 80 -2 7 -9 -6 -16 -28 -7 -22 -26 -64 -42 -92 -37 -67 -15 -74 32
-10 68 91 124 249 116 325 l-4 37 -1 -39z"/>
<path d="M1833 1185 c0 -44 2 -61 4 -37 2 23 2 59 0 80 -2 20 -4 1 -4 -43z"/>
<path d="M780 1207 c0 -4 14 -36 30 -70 94 -189 285 -327 452 -327 98 0 136
15 197 77 45 46 58 54 85 51 22 -2 34 -11 44 -30 29 -61 -28 -134 -130 -168
-48 -16 -54 -19 -23 -14 70 10 133 52 161 106 20 38 17 63 -9 94 -37 42 -68
36 -130 -28 -40 -42 -63 -57 -99 -66 -202 -51 -420 79 -546 323 -17 33 -31 56
-32 52z"/>
<path d="M1244 1190 c-64 -25 -86 -124 -39 -174 28 -30 84 -36 106 -10 11 14
10 18 -10 33 -27 20 -25 54 2 59 47 9 75 -68 42 -115 -19 -28 -77 -47 -118
-39 -45 8 -74 31 -97 74 -12 23 -19 30 -20 19 0 -10 18 -37 39 -60 38 -41 42
-42 101 -42 57 0 64 2 91 33 47 53 31 142 -26 142 -23 0 -55 -23 -55 -40 0
-11 26 -37 42 -42 23 -8 -4 -28 -37 -28 -63 0 -96 77 -58 140 20 34 52 50 101
50 49 0 81 -18 109 -59 13 -19 23 -28 23 -20 -1 20 -25 49 -57 71 -30 19 -102
23 -139 8z"/>
<path d="M1903 1090 c-30 -231 -124 -379 -293 -462 -41 -21 -83 -39 -92 -42
-38 -11 -16 -26 35 -24 l52 2 -50 4 -50 3 51 18 c185 66 304 215 349 438 9 44
15 98 13 119 -2 28 -6 12 -15 -56z"/>
<path d="M1592 1104 c-29 -20 -29 -59 1 -79 13 -8 47 -22 76 -31 33 -9 69 -30
96 -55 23 -21 45 -39 49 -39 11 0 7 38 -5 46 -8 4 -9 -1 -4 -17 7 -22 5 -21
-21 7 -34 36 -77 60 -144 80 -49 15 -65 33 -55 65 20 62 120 10 197 -101 9
-14 17 -20 17 -13 1 17 -97 122 -130 138 -36 19 -49 19 -77 -1z"/>
<path d="M1846 1083 c-10 -55 -29 -69 -22 -16 4 29 4 32 -3 13 -14 -38 -12
-60 3 -60 16 0 40 61 34 87 -3 10 -8 -1 -12 -24z"/>
<path d="M1441 1058 c-2 -75 -37 -127 -106 -159 -100 -46 -225 0 -286 106 -30
51 -36 55 -20 12 29 -77 137 -147 225 -147 57 0 127 31 161 72 24 28 41 100
32 134 -3 11 -5 2 -6 -18z"/>
<path d="M1690 880 c-9 -16 -8 -25 1 -36 27 -33 75 -2 52 35 -15 24 -40 25
-53 1z m48 -18 c3 -17 -2 -22 -17 -22 -14 0 -21 6 -21 18 0 38 33 41 38 4z"/>
<path d="M930 860 c19 -35 153 -128 225 -157 62 -24 83 -27 190 -28 139 0 190
17 261 86 47 46 74 45 74 -3 0 -56 -91 -119 -209 -144 -65 -14 -65 -14 -13 -9
110 9 232 90 232 153 0 30 -16 52 -37 52 -8 0 -33 -19 -56 -41 -71 -70 -113
-84 -252 -83 -129 0 -172 11 -271 69 -55 33 -52 45 5 16 72 -37 58 -22 -24 24
-43 25 -89 54 -100 65 -27 26 -39 26 -25 0z"/>
<path d="M1150 741 c8 -5 33 -12 55 -15 l40 -6 -45 15 c-50 16 -73 19 -50 6z"/>
<path d="M1283 713 c20 -2 54 -2 75 0 20 2 3 4 -38 4 -41 0 -58 -2 -37 -4z"/>
<path d="M1223 619 c10 -6 44 -12 75 -15 l57 -4 -65 15 c-79 17 -90 18 -67 4z"/>
<path d="M1790 619 c-14 -6 -61 -19 -105 -29 -44 -10 -68 -19 -54 -19 31 -1
157 31 184 47 25 14 9 14 -25 1z"/>
</g>
</svg>
